<?xml version="1.0" encoding="UTF-8" standalone="no"?>
<!-- Created with Inkscape (http://www.inkscape.org/) -->

<svg
   width="1000.0001"
   height="1000.0001"
   viewBox="0 0 264.58335 264.58335"
   version="1.1"
   id="svg1"
   xml:space="preserve"
   inkscape:version="1.3 (0e150ed, 2023-07-21)"
   sodipodi:docname="logo-2024.svg"
   inkscape:export-filename="cc-logo-2024-minimalist.png"
   inkscape:export-xdpi="96"
   inkscape:export-ydpi="96"
   xmlns:inkscape="http://www.inkscape.org/namespaces/inkscape"
   xmlns:sodipodi="http://sodipodi.sourceforge.net/DTD/sodipodi-0.dtd"
   xmlns="http://www.w3.org/2000/svg"
   xmlns:svg="http://www.w3.org/2000/svg"><sodipodi:namedview
     id="namedview1"
     pagecolor="#505050"
     bordercolor="#ffffff"
     borderopacity="1"
     inkscape:showpageshadow="0"
     inkscape:pageopacity="0"
     inkscape:pagecheckerboard="1"
     inkscape:deskcolor="#5c5c5c"
     inkscape:document-units="px"
     showguides="true"
     inkscape:zoom="0.32269824"
     inkscape:cx="438.49015"
     inkscape:cy="312.98591"
     inkscape:window-width="1973"
     inkscape:window-height="1088"
     inkscape:window-x="0"
     inkscape:window-y="0"
     inkscape:window-maximized="1"
     inkscape:current-layer="layer2"
     showgrid="false"><sodipodi:guide
       position="132.28948,250.51587"
       orientation="1,0"
       id="guide3"
       inkscape:locked="false" /><sodipodi:guide
       position="106.42764,132.28492"
       orientation="0,-1"
       id="guide4"
       inkscape:locked="false" /><sodipodi:guide
       position="139.19502,259.26862"
       orientation="0,-1"
       id="guide17"
       inkscape:locked="false" /><sodipodi:guide
       position="259.3002,212.68377"
       orientation="1,0"
       id="guide23"
       inkscape:locked="false" /><sodipodi:guide
       position="77.797015,5.2523589"
       orientation="0,-1"
       id="guide29"
       inkscape:locked="false" /><sodipodi:guide
       position="52.964031,486.17786"
       orientation="1,0"
       id="guide30"
       inkscape:locked="false" /><sodipodi:guide
       position="-0.15842857,490.50246"
       orientation="1,0"
       id="guide2"
       inkscape:locked="false" /><sodipodi:guide
       position="40.557713,403.20832"
       orientation="0,-1"
       id="guide5"
       inkscape:locked="false" /><sodipodi:guide
       position="-6.1143995,264.1757"
       orientation="0,-1"
       id="guide6"
       inkscape:locked="false" /></sodipodi:namedview><defs
     id="defs1" /><g
     inkscape:groupmode="layer"
     id="layer2"
     inkscape:label="circle-background"
     style="display:none"><rect
       style="display:none;opacity:0.997503;fill:#e9e6e3;fill-opacity:1;stroke-width:1.99888;stroke-linecap:round;stroke-linejoin:round"
       id="rect32"
       width="264.58289"
       height="264.63373"
       x="0.029495595"
       y="0.016215092"
       ry="0"
       rx="0" /><path
       id="ellipse32"
       style="display:inline;opacity:0.997503;fill:#09865c;fill-opacity:1;stroke-width:1.99968;stroke-linecap:round;stroke-linejoin:round"
       d="M 132.29268,5.8047319 C 62.271341,5.8045448 5.507584,62.57806 5.5075338,132.61167 5.5075815,202.64529 62.271339,259.41881 132.29268,259.41862 202.31384,259.41853 259.07729,202.6451 259.07734,132.61167 259.07729,62.578256 202.31384,5.8048219 132.29268,5.8047319 Z m -0.19809,11.4000851 h 0.0658 c 1.29504,0 2.33756,1.04251 2.33756,2.337565 v 13.163164 c 1e-5,1.295053 -1.04252,2.337564 -2.33756,2.337564 h -0.0658 c -1.29508,0 -2.33756,-1.042511 -2.33756,-2.337564 V 19.542382 c 0,-1.295059 1.04248,-2.337565 2.33756,-2.337565 z m 56.57848,15.106512 c 0.30135,0.03776 0.60066,0.135267 0.88104,0.297149 l 0.0569,0.03269 c 1.12155,0.647527 1.50331,2.071803 0.85579,3.193351 l -6.58133,11.399591 c -0.64753,1.121547 -2.07181,1.503312 -3.19335,0.855786 l -0.0574,-0.03268 c -1.12155,-0.647527 -1.50282,-2.071802 -0.85529,-3.193351 l 6.58133,-11.39959 c 0.48563,-0.841168 1.40824,-1.266208 2.31231,-1.152935 z m -113.104957,0.08766 c 0.904064,-0.113273 1.826662,0.311772 2.312307,1.152934 l 6.581335,11.399591 c 0.647528,1.121551 0.26626,2.545824 -0.855292,3.19335 l -0.05744,0.03269 c -1.12155,0.647527 -2.545328,0.265765 -3.192855,-0.855786 L 73.774329,35.922174 c -0.647527,-1.121551 -0.265763,-2.545823 0.855787,-3.193351 l 0.05695,-0.03269 c 0.280387,-0.161882 0.579689,-0.25939 0.881044,-0.297148 z M 204.39368,55.096643 v 4.95e-4 c 1.65342,-0.0043 2.05994,2.95019 1.03903,7.551027 -1.24855,5.626696 -5.2556,14.239762 -9.77915,21.019759 -7.80134,11.692899 -15.50257,18.794026 -23.68517,21.839896 -4.56557,1.69946 -8.8576,2.04874 -10.6275,2.95166 -7.77829,8.20316 -15.53497,17.31255 -22.58623,25.68252 6.87563,6.37869 12.6365,11.88272 13.10126,12.87591 0.33156,0.70849 0.40875,1.71295 0.19315,2.50942 -0.38271,1.41381 -1.80469,2.709 -3.22802,2.94028 -0.5509,0.0896 -0.80179,0.0885 -1.36688,-0.006 l -5e-4,-4.9e-4 c -0.21947,-0.0367 -0.67038,-0.20092 -1.00237,-0.365 -0.90251,-0.44604 -6.10579,-6.00257 -12.18604,-12.65405 -8.47525,10.09832 -15.02138,17.8873 -16.98399,18.67576 -1.94111,0.77978 -4.08411,0.23745 -4.47011,0.0906 -1.66425,-0.63314 -3.04639,-2.03327 -3.72672,-3.77427 -0.23554,-0.60274 -0.67223,-3.63508 0.0496,-4.37452 3.10134,-3.17742 10.97222,-11.2141 18.03441,-18.42516 -7.23774,-7.99795 -14.09186,-15.62759 -15.06739,-16.47885 -0.98937,-0.86334 -1.55826,-1.41151 -2.135,-1.615 -0.53802,-0.18981 -1.65841,-0.34229 -3.46029,-0.47196 -1.8982,-0.13661 -2.22803,-0.22589 -3.16315,-0.85529 -1.54193,-1.03784 -19.254202,-18.481003 -19.254202,-19.447849 0,-0.245228 0.395548,-0.635898 0.64382,-0.635898 1.121601,0 13.799678,13.512007 15.206552,14.371567 0.67456,0.41215 1.16977,-0.30504 1.16977,-0.72504 0,-0.98354 -7.420601,-7.017542 -14.34581,-15.164458 -0.416912,-0.49046 0.585575,-1.300846 0.978111,-1.040513 0.957537,0.634968 13.452129,13.288341 14.767759,14.291831 0.74556,0.56867 1.18117,-0.57008 1.18117,-0.63292 0,-0.73692 -13.602076,-13.876784 -14.416139,-15.109985 -0.266801,-0.404154 0.196149,-1.072208 0.74287,-1.072208 1.097213,0 13.918339,13.767953 15.249649,14.374543 0.26517,0.12082 1.25146,-0.20615 0.96077,-0.51903 L 96.913763,90.879937 c -4.022919,-4.056108 -4.736912,-4.8261 -5.022793,-5.414533 -0.37662,-0.775188 0.432932,-1.134288 0.777538,-0.979102 1.047871,0.499694 18.784232,18.068208 19.406742,19.372568 0.33988,0.71216 0.5284,1.6775 0.68344,3.49693 0.20013,2.34863 0.26116,3.24592 1.1143,4.05013 1.21056,1.14114 9.22513,8.36803 17.49558,15.93755 12.72015,-12.97041 27.01262,-27.486705 38.81745,-39.241381 34.4266,-34.341329 33.03843,-33.002191 34.20768,-33.005227 z m 24.90993,18.397426 c 0.90406,-0.113273 1.82616,0.311773 2.31181,1.152935 l 0.0332,0.05695 c 0.64754,1.121548 0.26575,2.545825 -0.85579,3.19335 l -11.39959,6.581335 c -1.12155,0.647527 -2.54583,0.266256 -3.19335,-0.855292 l -0.0327,-0.05744 c -0.64752,-1.121549 -0.26576,-2.545824 0.85579,-3.19335 l 11.39959,-6.581335 c 0.28037,-0.161883 0.57968,-0.259391 0.88104,-0.297149 z m -194.367027,0.08666 c 0.301354,0.03776 0.600655,0.135267 0.881043,0.297148 l 11.400086,6.581334 c 1.12155,0.647528 1.502819,2.071801 0.855291,3.193353 l -0.03269,0.05695 c -0.647526,1.12155 -2.0718,1.503316 -3.193351,0.855787 L 33.44738,77.983971 c -1.121551,-0.647527 -1.503313,-2.0718 -0.855786,-3.193351 l 0.03317,-0.05695 c 0.485645,-0.841163 1.407748,-1.266208 2.311812,-1.152935 z M 231.48963,129.74717 h 13.16316 c 1.29506,0 2.33755,1.0425 2.33756,2.33756 v 0.0658 c 0,1.29507 -1.0425,2.33756 -2.33756,2.33756 h -13.16316 c -1.29505,0 -2.33757,-1.04249 -2.33757,-2.33756 v -0.0658 c 0,-1.29506 1.04251,-2.33756 2.33757,-2.33756 z m -211.964137,0.0995 h 13.163164 c 1.295056,0 2.337565,1.04249 2.337566,2.33756 v 0.0658 c 5e-6,1.29505 -1.042509,2.33756 -2.337566,2.33756 l -13.163164,5e-4 c -1.295053,0 -2.337564,-1.04301 -2.337564,-2.33806 v -0.0658 c 0,-1.29506 1.04251,-2.33756 2.337564,-2.33756 z m 198.924777,49.6257 c 0.30136,0.0377 0.60065,0.13527 0.88104,0.29715 l 11.39959,6.58183 c 1.12155,0.64753 1.50333,2.0718 0.85579,3.19334 l -0.0332,0.0569 c -0.64753,1.12154 -2.07129,1.50332 -3.19285,0.85578 l -11.39959,-6.58184 c -1.12155,-0.64752 -1.50332,-2.0718 -0.85579,-3.19334 l 0.0327,-0.0569 c 0.48564,-0.84117 1.40823,-1.2662 2.3123,-1.15294 z m -172.784167,0.0866 c 0.904064,-0.11327 1.826664,0.31177 2.312308,1.15293 l 0.03269,0.0569 c 0.647527,1.12156 0.266259,2.54583 -0.855292,3.19336 l -11.400084,6.58182 c -1.121551,0.64751 -2.54533,0.26576 -3.192857,-0.85578 l -0.03317,-0.0569 c -0.647525,-1.12155 -0.265764,-2.54582 0.855787,-3.19335 l 11.39959,-6.58183 c 0.280386,-0.16188 0.579689,-0.25939 0.881043,-0.29715 z m 135.844207,36.30109 c 0.90407,-0.11327 1.82617,0.31178 2.31181,1.15294 l 6.58183,11.39958 c 0.64754,1.12157 0.26576,2.54583 -0.85578,3.19337 l -0.0569,0.0331 c -1.12154,0.64753 -2.54581,0.26576 -3.19334,-0.85579 l -6.58133,-11.39959 c -0.64753,-1.12155 -0.26626,-2.54582 0.85529,-3.19335 l 0.0574,-0.0331 c 0.28039,-0.16187 0.5797,-0.25939 0.88105,-0.29715 z m -98.905236,0.0882 c 0.301355,0.0377 0.600658,0.13527 0.881045,0.29714 l 0.05744,0.0326 c 1.121547,0.64753 1.502817,2.07181 0.85529,3.19336 l -6.581333,11.39959 c -0.647527,1.12155 -2.071803,1.50331 -3.193352,0.85578 l -0.05695,-0.0331 c -1.121549,-0.64753 -1.503312,-2.07181 -0.855786,-3.19336 l 6.581829,-11.39959 c 0.485645,-0.84115 1.407747,-1.26571 2.311811,-1.15243 z m 49.412746,13.34343 h 0.0664 c 1.29506,0 2.33757,1.043 2.33757,2.33806 v 13.16316 c 0,1.29505 -1.04251,2.33757 -2.33757,2.33757 h -0.0664 c -1.29505,0 -2.33756,-1.04252 -2.33756,-2.33757 v -13.16316 c 0,-1.29506 1.04252,-2.33806 2.33756,-2.33806 z"
       inkscape:label="logo crew craft" /></g><g
     inkscape:label="Layer 1"
     inkscape:groupmode="layer"
     id="layer1"
     style="display:none"><path
       style="display:inline;fill:#ffffff;fill-opacity:1;stroke-width:0.496387"
       d="m 116.62902,158.95599 c -2.02545,0.81367 -4.26171,0.24745 -4.66447,0.0942 -1.73656,-0.66065 -3.17875,-2.12103 -3.88865,-3.93768 -0.24576,-0.62892 -0.70139,-3.79342 0.0517,-4.56499 9.41119,-9.64206 42.32193,-43.35748 63.7046,-64.649294 35.92247,-35.833502 34.47423,-34.436171 35.69429,-34.439338 1.72525,-0.0045 2.14942,3.078161 1.08416,7.878911 -1.3028,5.87118 -5.48404,14.858485 -10.20412,21.933081 -8.14033,12.20097 -16.17598,19.61061 -24.71413,22.78881 -4.76393,1.7733 -9.24285,2.13798 -11.08965,3.08013 -20.24726,21.35321 -41.99738,50.21874 -45.97372,51.81616 z"
       id="path2"
       sodipodi:nodetypes="scsscssssss"
       inkscape:label="knife" /><path
       style="display:inline;fill:#ffffff;fill-opacity:1;stroke-width:0.318115"
       d="m 148.11265,153.05362 c -0.22901,-0.0383 -0.6998,-0.20974 -1.04622,-0.38095 -2.3932,-1.18279 -33.60066,-36.58913 -35.84257,-38.54547 -1.03236,-0.90086 -1.62619,-1.47281 -2.228,-1.68514 -0.56139,-0.19806 -1.73024,-0.35767 -3.61041,-0.49298 -1.98067,-0.14254 -2.32495,-0.23562 -3.30071,-0.89237 -1.60894,-1.08293 -20.090617,-19.283382 -20.090617,-20.292238 0,-0.255883 0.412505,-0.663322 0.671564,-0.663322 1.170335,0 14.399472,14.09846 15.867475,14.99537 0.703874,0.43005 1.220438,-0.31769 1.220438,-0.75595 0,-1.02627 -7.742834,-7.322716 -14.968944,-15.823617 -0.435025,-0.51177 0.610903,-1.357192 1.020497,-1.085548 0.999141,0.662558 14.036549,13.865665 15.409357,14.912755 0.77795,0.59338 1.23247,-0.59561 1.23247,-0.66118 0,-0.76893 -14.192951,-14.478976 -15.042386,-15.765759 -0.278393,-0.421716 0.204308,-1.11865 0.774785,-1.11865 1.144887,0 14.523371,14.365965 15.912521,14.998905 0.2767,0.12608 1.30602,-0.21497 1.0027,-0.54144 L 95.376777,88.796561 c -4.197716,-4.232347 -4.94295,-5.03564 -5.241252,-5.649641 -0.392985,-0.808871 0.451872,-1.183804 0.811452,-1.021876 1.093401,0.521407 19.600063,18.853406 20.249613,20.214436 0.35465,0.7431 0.55156,1.75028 0.71333,3.64878 0.20883,2.45067 0.27239,3.38725 1.1626,4.22641 2.74849,2.59088 38.41781,34.56136 39.63337,37.159 0.34596,0.73927 0.42668,1.78697 0.20172,2.61804 -0.39934,1.47526 -1.88337,2.82704 -3.36854,3.06836 -0.57483,0.0934 -0.83676,0.0922 -1.4264,-0.006 z"
       id="path3"
       sodipodi:nodetypes="sssssssssssssssssscssssssssss"
       inkscape:label="fork" /></g><g
     inkscape:label="cc-planner-logo"
     inkscape:groupmode="layer"
     id="g32"
     style="display:inline"><rect
       style="display:none;fill:#ffffff;fill-opacity:1;stroke-width:0.264583;stroke-linecap:round;stroke-linejoin:round"
       id="rect19"
       width="264.45203"
       height="264.91571"
       x="0.19712171"
       y="-0.29459947"
       ry="26.956944"
       rx="26.956944" /><path
       style="display:none;fill:#ffffff;fill-opacity:1;stroke-width:0.496387"
       d="m 116.62902,158.95599 c -2.02545,0.81367 -4.26171,0.24745 -4.66447,0.0942 -1.73656,-0.66065 -3.17875,-2.12103 -3.88865,-3.93768 -0.24576,-0.62892 -0.70139,-3.79342 0.0517,-4.56499 9.41119,-9.64206 42.32193,-43.35748 63.7046,-64.649294 35.92247,-35.833502 34.47423,-34.436171 35.69429,-34.439338 1.72525,-0.0045 2.14942,3.078161 1.08416,7.878911 -1.3028,5.87118 -5.48404,14.858485 -10.20412,21.933081 -8.14033,12.20097 -16.17598,19.61061 -24.71413,22.78881 -4.76393,1.7733 -9.24285,2.13798 -11.08965,3.08013 -20.24726,21.35321 -41.99738,50.21874 -45.97372,51.81616 z"
       id="path6"
       sodipodi:nodetypes="scsscssssss"
       inkscape:label="knife" /><path
       style="display:none;fill:#ffffff;fill-opacity:1;stroke-width:0.318115"
       d="m 148.11265,153.05362 c -0.22901,-0.0383 -0.6998,-0.20974 -1.04622,-0.38095 -2.3932,-1.18279 -33.60066,-36.58913 -35.84257,-38.54547 -1.03236,-0.90086 -1.62619,-1.47281 -2.228,-1.68514 -0.56139,-0.19806 -1.73024,-0.35767 -3.61041,-0.49298 -1.98067,-0.14254 -2.32495,-0.23562 -3.30071,-0.89237 -1.60894,-1.08293 -20.090617,-19.283382 -20.090617,-20.292238 0,-0.255883 0.412505,-0.663322 0.671564,-0.663322 1.170335,0 14.399472,14.09846 15.867475,14.99537 0.703874,0.43005 1.220438,-0.31769 1.220438,-0.75595 0,-1.02627 -7.742834,-7.322716 -14.968944,-15.823617 -0.435025,-0.51177 0.610903,-1.357192 1.020497,-1.085548 0.999141,0.662558 14.036549,13.865665 15.409357,14.912755 0.77795,0.59338 1.23247,-0.59561 1.23247,-0.66118 0,-0.76893 -14.192951,-14.478976 -15.042386,-15.765759 -0.278393,-0.421716 0.204308,-1.11865 0.774785,-1.11865 1.144887,0 14.523371,14.365965 15.912521,14.998905 0.2767,0.12608 1.30602,-0.21497 1.0027,-0.54144 L 95.376777,88.796561 c -4.197716,-4.232347 -4.94295,-5.03564 -5.241252,-5.649641 -0.392985,-0.808871 0.451872,-1.183804 0.811452,-1.021876 1.093401,0.521407 19.600063,18.853406 20.249613,20.214436 0.35465,0.7431 0.55156,1.75028 0.71333,3.64878 0.20883,2.45067 0.27239,3.38725 1.1626,4.22641 2.74849,2.59088 38.41781,34.56136 39.63337,37.159 0.34596,0.73927 0.42668,1.78697 0.20172,2.61804 -0.39934,1.47526 -1.88337,2.82704 -3.36854,3.06836 -0.57483,0.0934 -0.83676,0.0922 -1.4264,-0.006 z"
       id="path7"
       sodipodi:nodetypes="sssssssssssssssssscssssssssss"
       inkscape:label="fork" /><path
       id="rect20"
       style="fill:#09865c;stroke-width:0.264582;stroke-linecap:round;stroke-linejoin:round"
       d="m 132.22362,232.78955 c -0.34862,0 -0.68022,0.068 -0.98155,0.19047 -0.30133,0.12246 -0.57277,0.29986 -0.80024,0.51928 -0.22748,0.21942 -0.41086,0.48105 -0.5379,0.7717 -0.12699,0.29063 -0.19751,0.61032 -0.19751,0.9465 v 13.6681 c 0,0.33618 0.0706,0.65594 0.19751,0.94653 0.12699,0.29059 0.31042,0.55231 0.5379,0.77168 0.22747,0.21935 0.49891,0.39679 0.80024,0.51929 0.30133,0.12246 0.63293,0.18987 0.98155,0.18987 h 0.0715 c 0.34862,0 0.6802,-0.0674 0.98155,-0.18987 0.30133,-0.12246 0.57277,-0.29994 0.80024,-0.51929 0.22748,-0.21937 0.41147,-0.48109 0.5385,-0.77168 0.127,-0.29059 0.1969,-0.61035 0.1969,-0.94653 v -13.6681 c 0,-0.33618 -0.0698,-0.65587 -0.1969,-0.9465 -0.12699,-0.29065 -0.31102,-0.55228 -0.5385,-0.7717 -0.22747,-0.21942 -0.49891,-0.39675 -0.80024,-0.51928 -0.30135,-0.12261 -0.63293,-0.19047 -0.98155,-0.19047 z" /><path
       id="path69"
       style="fill:#09865c;stroke-width:0.264582;stroke-linecap:round;stroke-linejoin:round"
       d="m 132.22362,232.78955 h 0.0715 c 0.34862,0 0.6802,0.068 0.98155,0.19047 0.30133,0.12246 0.57277,0.29986 0.80024,0.51928 0.22748,0.21942 0.41147,0.48105 0.5385,0.7717 0.127,0.29063 0.1969,0.61032 0.1969,0.9465 v 13.6681 c 0,0.33618 -0.0698,0.65594 -0.1969,0.94653 -0.12699,0.29059 -0.31102,0.55231 -0.5385,0.77168 -0.22747,0.21935 -0.49891,0.39679 -0.80024,0.51929 -0.30135,0.12246 -0.63293,0.18987 -0.98155,0.18987 h -0.0715 c -0.34862,0 -0.68022,-0.0674 -0.98155,-0.18987 -0.30133,-0.12246 -0.57277,-0.29994 -0.80024,-0.51929 -0.22748,-0.21937 -0.41086,-0.48109 -0.5379,-0.77168 -0.12699,-0.29059 -0.19751,-0.61035 -0.19751,-0.94653 v -13.6681 c 0,-0.33618 0.0706,-0.65587 0.19751,-0.9465 0.12699,-0.29065 0.31042,-0.55228 0.5379,-0.7717 0.22747,-0.21942 0.49891,-0.39675 0.80024,-0.51928 0.30133,-0.12261 0.63293,-0.19047 0.98155,-0.19047 z" /><path
       id="path68"
       style="fill:#09865c;stroke-width:0.264582;stroke-linecap:round;stroke-linejoin:round"
       d="m 79.016202,218.93448 c -0.243373,-0.0295 -0.488248,-0.024 -0.726408,0.0147 -0.238148,0.0384 -0.469736,0.1095 -0.687379,0.21188 -0.217642,0.10226 -0.420894,0.23597 -0.602727,0.39828 -0.181845,0.16234 -0.342332,0.35361 -0.473064,0.57197 l -7.086915,11.837 c -0.174313,0.29114 -0.279338,0.60176 -0.319976,0.91468 -0.0406,0.31294 -0.0173,0.62832 0.06607,0.928 0.08325,0.29967 0.226364,0.58397 0.423837,0.83536 0.197473,0.2514 0.4497,0.46988 0.75161,0.63797 l 0.06126,0.034 c 0.301922,0.16809 0.624025,0.26936 0.94853,0.30856 0.324506,0.0393 0.65157,0.0161 0.962333,-0.0642 0.310763,-0.0803 0.605574,-0.21772 0.866281,-0.40814 0.260695,-0.19044 0.487251,-0.43366 0.661564,-0.7248 l 7.086314,-11.837 c 0.174314,-0.29115 0.279892,-0.60175 0.320578,-0.91469 0.04072,-0.3129 0.01658,-0.6283 -0.06667,-0.92799 -0.08325,-0.29967 -0.225811,-0.58395 -0.423237,-0.83536 -0.197425,-0.2514 -0.449699,-0.46987 -0.751621,-0.63796 l -0.06186,-0.0336 c -0.301922,-0.16808 -0.624025,-0.26934 -0.94853,-0.30856 z" /><path
       id="path67"
       style="fill:#09865c;stroke-width:0.264582;stroke-linecap:round;stroke-linejoin:round"
       d="m 185.51688,218.84244 c -0.3245,0.0393 -0.64659,0.14053 -0.94853,0.30854 l -0.0617,0.0346 c -0.30191,0.1681 -0.5542,0.38656 -0.75162,0.63797 -0.19742,0.25139 -0.34,0.53568 -0.42323,0.83537 -0.0832,0.29967 -0.10727,0.61449 -0.0667,0.9274 0.0407,0.31294 0.14559,0.62413 0.31999,0.91527 l 7.08692,11.83701 c 0.17431,0.29113 0.40085,0.53435 0.66155,0.7248 0.26071,0.1904 0.55552,0.3278 0.86629,0.40812 0.31077,0.0803 0.63782,0.10332 0.96234,0.0642 0.32449,-0.0393 0.6466,-0.14055 0.94851,-0.30857 l 0.0613,-0.0346 c 0.30192,-0.1681 0.55415,-0.38657 0.75162,-0.63796 0.19747,-0.25141 0.34055,-0.53569 0.42384,-0.83537 0.0832,-0.2997 0.10667,-0.61449 0.0661,-0.92742 -0.0407,-0.31294 -0.14559,-0.62353 -0.31996,-0.91467 l -7.08692,-11.83758 c -0.1308,-0.21835 -0.29123,-0.40961 -0.47305,-0.57197 -0.18184,-0.16236 -0.38509,-0.2953 -0.60276,-0.39772 -0.21762,-0.10237 -0.44981,-0.17398 -0.68797,-0.21244 -0.23816,-0.0385 -0.48242,-0.0444 -0.72579,-0.0149 z" /><path
       id="path66"
       style="fill:#09865c;stroke-width:0.264582;stroke-linecap:round;stroke-linejoin:round"
       d="m 39.240608,181.14835 c -0.324495,0.0393 -0.646605,0.14054 -0.948523,0.30857 l -12.274986,6.83462 c -0.301921,0.1681 -0.554143,0.38655 -0.751616,0.63796 -0.197474,0.25139 -0.34055,0.5357 -0.423836,0.83537 -0.08328,0.29967 -0.107283,0.61506 -0.06663,0.928 0.04063,0.31293 0.146263,0.62353 0.320577,0.91467 l 0.03541,0.0592 c 0.174312,0.29115 0.400915,0.53438 0.661564,0.7248 0.260652,0.19044 0.555583,0.32783 0.866281,0.40814 0.310697,0.0803 0.637276,0.10333 0.96173,0.0642 0.324455,-0.0393 0.646605,-0.14039 0.948526,-0.30855 l 12.275587,-6.83462 c 0.301919,-0.16809 0.554191,-0.38657 0.751614,-0.63797 0.197426,-0.2514 0.340015,-0.53569 0.423235,-0.83537 0.08322,-0.29966 0.106731,-0.61449 0.06605,-0.92741 -0.04069,-0.31293 -0.145668,-0.62354 -0.319977,-0.91468 l -0.03541,-0.0595 c -0.130742,-0.21836 -0.290576,-0.40959 -0.472461,-0.57194 -0.181884,-0.16239 -0.385626,-0.29591 -0.603334,-0.3983 -0.217708,-0.10239 -0.449176,-0.1734 -0.687381,-0.21189 -0.238201,-0.0384 -0.483027,-0.0444 -0.726401,-0.0149 z" /><path
       id="path65"
       style="fill:#09865c;stroke-width:0.264582;stroke-linecap:round;stroke-linejoin:round"
       d="m 225.29367,181.05862 c -0.24338,-0.0294 -0.4882,-0.024 -0.7264,0.0148 -0.23821,0.0385 -0.46967,0.10998 -0.68738,0.21246 -0.21773,0.10238 -0.42146,0.23591 -0.60334,0.3983 -0.18188,0.16236 -0.34233,0.35358 -0.47305,0.57194 l -0.035,0.0592 c -0.17429,0.29115 -0.27934,0.60235 -0.31996,0.91528 -0.0407,0.31291 -0.0172,0.62773 0.0659,0.9274 0.0832,0.29969 0.22637,0.58397 0.42384,0.83537 0.19747,0.25138 0.44971,0.46986 0.75162,0.63795 l 12.27499,6.83464 c 0.30191,0.1681 0.62408,0.26937 0.94853,0.30855 0.32445,0.0393 0.65102,0.0161 0.96174,-0.0642 0.31069,-0.0803 0.60562,-0.21828 0.86625,-0.40869 0.26067,-0.19046 0.48728,-0.4331 0.66159,-0.72423 l 0.0353,-0.0595 c 0.17431,-0.29115 0.27932,-0.60177 0.31998,-0.91468 0.0407,-0.31293 0.0174,-0.62775 -0.0661,-0.92743 -0.0832,-0.29966 -0.22637,-0.58397 -0.42385,-0.83537 -0.19745,-0.25139 -0.44969,-0.46985 -0.75161,-0.63794 l -12.27499,-6.83463 c -0.30193,-0.16808 -0.62404,-0.26936 -0.94852,-0.30857 z" /><path
       id="path64"
       style="fill:#09865c;stroke-width:0.264582;stroke-linecap:round;stroke-linejoin:round"
       d="m 11.092245,129.52858 c -0.348625,0 -0.680198,0.0681 -0.981541,0.19046 -0.3013428,0.12247 -0.5721645,0.29992 -0.7996439,0.51929 -0.2274758,0.21935 -0.4114663,0.48051 -0.5384961,0.7711 -0.1270237,0.29061 -0.1969088,0.61034 -0.1969088,0.94653 v 0.0684 c 0,0.33619 0.069889,0.65588 0.1969088,0.94651 0.1270238,0.29064 0.3110203,0.55226 0.5384961,0.7717 0.2274794,0.21942 0.4983011,0.39673 0.7996439,0.51928 0.301343,0.12247 0.632916,0.19045 0.981541,0.19045 l 14.174437,-5.7e-4 c 0.348628,0 0.6802,-0.0681 0.981544,-0.19045 0.301343,-0.12247 0.572164,-0.29936 0.799641,-0.51871 0.227479,-0.21938 0.411468,-0.48112 0.538498,-0.7717 0.127024,-0.29058 0.196911,-0.61032 0.196909,-0.94651 v -0.0684 c 0,-0.33619 -0.06989,-0.65592 -0.196909,-0.94653 -0.127024,-0.29059 -0.31102,-0.55175 -0.538498,-0.7711 -0.227477,-0.21937 -0.498298,-0.3968 -0.799641,-0.51929 -0.301343,-0.12246 -0.632916,-0.19046 -0.981544,-0.19046 z" /><path
       id="path63"
       style="fill:#09865c;stroke-width:0.264582;stroke-linecap:round;stroke-linejoin:round"
       d="m 239.33423,129.42553 c -0.34863,0 -0.68021,0.0675 -0.98155,0.18988 -0.30135,0.12246 -0.57216,0.29993 -0.79964,0.51929 -0.22747,0.21936 -0.41147,0.48051 -0.53849,0.77112 -0.12699,0.29058 -0.19751,0.61031 -0.19751,0.94651 v 0.0684 c 0,0.33618 0.0706,0.65652 0.19751,0.94709 0.12699,0.2906 0.31102,0.55175 0.53849,0.77112 0.22748,0.21936 0.49829,0.39679 0.79964,0.51927 0.30134,0.12247 0.63293,0.18989 0.98155,0.18989 h 14.17384 c 0.34862,0 0.68081,-0.0675 0.98214,-0.18989 0.30133,-0.12246 0.57217,-0.29991 0.79965,-0.51927 0.22747,-0.21937 0.41145,-0.48052 0.53849,-0.77112 0.12699,-0.29057 0.1969,-0.61091 0.1969,-0.94709 v -0.0684 c -1e-5,-0.3362 -0.07,-0.65593 -0.1969,-0.94651 -0.12699,-0.29061 -0.31102,-0.55176 -0.53849,-0.77112 -0.22748,-0.21936 -0.49832,-0.39679 -0.79965,-0.51929 -0.30133,-0.12246 -0.63352,-0.18988 -0.98214,-0.18988 z" /><path
       id="path62"
       style="fill:#09865c;stroke-width:0.264582;stroke-linecap:round;stroke-linejoin:round"
       d="m 239.33423,129.42553 h 14.17384 c 0.34862,0 0.68081,0.0675 0.98214,0.18988 0.30133,0.12246 0.57217,0.29993 0.79965,0.51929 0.22747,0.21936 0.41145,0.48051 0.53849,0.77112 0.12699,0.29058 0.19689,0.61031 0.1969,0.94651 v 0.0684 c 0,0.33618 -0.07,0.65652 -0.1969,0.94709 -0.12699,0.2906 -0.31102,0.55175 -0.53849,0.77112 -0.22748,0.21936 -0.49832,0.39679 -0.79965,0.51927 -0.30133,0.12247 -0.63352,0.18989 -0.98214,0.18989 h -14.17384 c -0.34862,0 -0.68021,-0.0675 -0.98155,-0.18989 -0.30135,-0.12246 -0.57216,-0.29991 -0.79964,-0.51927 -0.22747,-0.21937 -0.41147,-0.48052 -0.53849,-0.77112 -0.12699,-0.29057 -0.19751,-0.61091 -0.19751,-0.94709 v -0.0684 c 0,-0.3362 0.0706,-0.65593 0.19751,-0.94651 0.12699,-0.29061 0.31102,-0.55176 0.53849,-0.77112 0.22748,-0.21936 0.49829,-0.39679 0.79964,-0.51929 0.30134,-0.12246 0.63292,-0.18988 0.98155,-0.18988 z" /><path
       id="path61"
       style="fill:#09865c;stroke-width:0.264582;stroke-linecap:round;stroke-linejoin:round"
       d="m 27.687222,71.103692 c -0.243373,-0.02941 -0.48825,-0.024 -0.726404,0.0144 -0.238152,0.0385 -0.469739,0.110051 -0.687378,0.212463 -0.217642,0.102403 -0.4215,0.235923 -0.603334,0.398289 -0.181836,0.162368 -0.341726,0.353605 -0.47246,0.571965 l -0.03541,0.05905 c -0.174312,0.291145 -0.279934,0.601756 -0.320577,0.914679 -0.04063,0.312926 -0.01665,0.628318 0.06663,0.927996 0.08328,0.299676 0.226362,0.58397 0.423836,0.835369 0.197473,0.251398 0.449694,0.469866 0.751615,0.637961 l 12.274987,6.833467 c 0.301918,0.168093 0.624019,0.269367 0.948524,0.30856 0.324504,0.0392 0.650967,0.01664 0.961731,-0.06367 0.310765,-0.08031 0.605578,-0.218283 0.866279,-0.408714 0.260701,-0.190427 0.487253,-0.433649 0.661565,-0.724795 l 0.03541,-0.05905 c 0.174313,-0.291146 0.279284,-0.601754 0.319977,-0.914678 0.04069,-0.312926 0.01718,-0.627741 -0.06603,-0.927417 -0.08322,-0.299676 -0.22581,-0.58397 -0.423234,-0.835368 -0.197423,-0.2514 -0.449696,-0.469867 -0.751614,-0.637962 L 28.635751,71.412185 c -0.30192,-0.168094 -0.624026,-0.269352 -0.948523,-0.308561 z" /><path
       id="path60"
       style="fill:#09865c;stroke-width:0.264582;stroke-linecap:round;stroke-linejoin:round"
       d="m 236.98034,71.013382 c -0.32452,0.03921 -0.64663,0.140471 -0.94853,0.30856 l -12.27499,6.834047 c -0.30191,0.168094 -0.55415,0.386562 -0.75162,0.63796 -0.19746,0.251399 -0.34054,0.535694 -0.42385,0.83537 -0.0832,0.299676 -0.10655,0.615068 -0.0661,0.927994 0.0407,0.312925 0.14575,0.623534 0.31999,0.91468 l 0.035,0.05964 c 0.17431,0.291146 0.40085,0.534417 0.66156,0.724798 0.2607,0.190379 0.55553,0.327881 0.86628,0.40813 0.31076,0.08025 0.63782,0.102926 0.96233,0.06368 0.32451,-0.03925 0.6466,-0.14047 0.94851,-0.308559 l 12.275,-6.834048 c 0.30193,-0.168092 0.55415,-0.386561 0.75161,-0.63796 0.19749,-0.251398 0.34055,-0.535691 0.42385,-0.835369 0.0833,-0.299675 0.10667,-0.614491 0.066,-0.927415 -0.0407,-0.312925 -0.14559,-0.624112 -0.31996,-0.915259 l -0.0353,-0.05905 c -0.1308,-0.21836 -0.29123,-0.409597 -0.47306,-0.571964 -0.18185,-0.162366 -0.38511,-0.295883 -0.60274,-0.39829 -0.21766,-0.102403 -0.44924,-0.173397 -0.68739,-0.211882 -0.23815,-0.03847 -0.48303,-0.04446 -0.7264,-0.01506 z" /><path
       id="path59"
       style="fill:#09865c;stroke-width:0.264582;stroke-linecap:round;stroke-linejoin:round"
       d="m 236.98034,71.013382 c 0.24336,-0.02941 0.48824,-0.02343 0.72639,0.01506 0.23814,0.03847 0.46973,0.10947 0.68737,0.211882 0.21765,0.102402 0.4209,0.235922 0.60274,0.39829 0.18184,0.162367 0.34232,0.353604 0.47307,0.571965 l 0.0353,0.05905 c 0.17432,0.291146 0.27934,0.602334 0.31997,0.915258 0.0407,0.312925 0.0173,0.627741 -0.0659,0.927416 -0.0832,0.299676 -0.22636,0.583969 -0.42384,0.835369 -0.19746,0.251399 -0.4497,0.469867 -0.75162,0.637959 l -12.27502,6.834047 c -0.30192,0.168095 -0.62401,0.269321 -0.94852,0.308561 -0.3245,0.03925 -0.65155,0.01656 -0.96233,-0.06367 -0.31076,-0.08025 -0.60557,-0.217752 -0.86628,-0.408133 -0.2607,-0.190378 -0.48724,-0.433651 -0.66156,-0.724797 l -0.035,-0.05964 c -0.17431,-0.291146 -0.27935,-0.601753 -0.31998,-0.914679 -0.0407,-0.312925 -0.0172,-0.628317 0.0661,-0.927996 0.0832,-0.299674 0.22638,-0.583968 0.42384,-0.835367 0.19747,-0.251398 0.4497,-0.469866 0.75162,-0.63796 l 12.27498,-6.834048 c 0.3019,-0.168096 0.62404,-0.269354 0.94853,-0.308559 z" /><path
       id="path58"
       style="fill:#09865c;stroke-width:0.264582;stroke-linecap:round;stroke-linejoin:round"
       d="m 210.1575,51.910469 c -0.15739,3.96e-4 -0.27182,-0.02092 -0.42384,0.01105 -0.15199,0.03193 -0.34149,0.11751 -0.64956,0.331137 -0.61615,0.427253 -1.70603,1.368028 -3.91475,3.423102 -4.41749,4.110147 -13.31124,12.677346 -31.84642,30.506883 -6.35567,6.102874 -13.38099,12.922523 -20.52955,19.900059 -7.14855,6.97757 -14.42066,14.11313 -21.26915,20.84719 -8.90558,-7.86003 -17.5355,-15.36448 -18.83901,-16.5494 -0.22967,-0.20876 -0.40581,-0.42343 -0.54451,-0.66631 -0.13873,-0.24289 -0.23967,-0.51371 -0.31877,-0.83479 -0.15821,-0.64217 -0.22903,-1.48473 -0.33678,-2.7041 -0.0834,-0.94461 -0.1756,-1.66756 -0.29298,-2.24676 -0.11736,-0.57918 -0.25944,-1.015 -0.44243,-1.38475 -0.16757,-0.3386 -1.48711,-1.73253 -3.38948,-3.641346 -1.90236,-1.908816 -4.38789,-4.332428 -6.88762,-6.729841 -2.4997,-2.397412 -5.013819,-4.768583 -6.973453,-6.572961 -1.95961,-1.804377 -3.364916,-3.042138 -3.647017,-3.171856 -0.09286,-0.04028 -0.216417,-0.04687 -0.343978,-0.02201 -0.127596,0.02487 -0.258785,0.0816 -0.365612,0.168464 -0.106911,0.08684 -0.189221,0.203449 -0.219709,0.349083 -0.03051,0.145631 -0.0096,0.319786 0.09238,0.52102 0.153916,0.305506 0.42308,0.658443 1.195255,1.461174 0.772175,0.802735 2.047205,2.055344 4.21313,4.161216 l 10.028534,10.408823 c 0.0783,0.0813 0.0701,0.162949 0.0108,0.238513 -0.0599,0.07556 -0.17213,0.144808 -0.30316,0.199718 -0.26207,0.109813 -0.59923,0.163463 -0.74201,0.100713 -0.3584,-0.157471 -1.48973,-1.169315 -3.00408,-2.598164 -1.514314,-1.428847 -3.41176,-3.274962 -5.300916,-5.101363 -1.889157,-1.8264 -3.770062,-3.633144 -5.252896,-4.983267 -0.741423,-0.675054 -1.383287,-1.235746 -1.876652,-1.627904 -0.493365,-0.392142 -0.838063,-0.615381 -0.985745,-0.615381 -0.147117,0 -0.289177,0.04307 -0.414227,0.114671 -0.125002,0.07159 -0.233415,0.171315 -0.314571,0.28425 -0.08108,0.112902 -0.135225,0.238925 -0.150625,0.362975 -0.0155,0.124078 0.0072,0.246482 0.07928,0.351405 0.219144,0.32012 1.298755,1.41297 2.795139,2.884128 1.496396,1.471159 3.409314,3.320685 5.294927,5.154053 1.885625,1.833369 3.744222,3.650624 5.131041,5.057362 0.693415,0.703375 1.269125,1.304135 1.671335,1.752955 0.40219,0.4488 0.63095,0.74551 0.63095,0.84115 0,0.0326 -0.11737,0.34433 -0.335,0.57429 -0.10883,0.11497 -0.24294,0.20967 -0.39982,0.23851 -0.15687,0.0288 -0.33658,-0.007 -0.53729,-0.15573 -0.708336,-0.521 -4.425999,-4.066082 -8.09548,-7.563475 -3.66948,-3.497394 -7.290587,-6.947258 -7.806115,-7.276919 -0.10571,-0.06762 -0.252803,-0.06557 -0.40643,-0.01675 -0.153628,0.0488 -0.313947,0.144954 -0.44725,0.265137 -0.13329,0.12011 -0.239276,0.264168 -0.283951,0.41046 -0.04469,0.146278 -0.02823,0.294702 0.08409,0.422015 1.864254,2.114884 3.761928,4.092236 5.559658,5.885222 1.797754,1.792969 3.495684,3.401423 4.960559,4.77717 1.464864,1.37573 2.696745,2.5188 3.562354,3.382 0.432834,0.4316 0.774313,0.7935 1.007367,1.07908 0.233055,0.28559 0.357804,0.49525 0.357804,0.62292 0,0.21806 -0.133086,0.51328 -0.357215,0.70048 -0.112077,0.0935 -0.247073,0.16011 -0.399211,0.17656 -0.152151,0.0165 -0.321479,-0.0175 -0.503072,-0.12451 -0.378741,-0.22315 -1.516325,-1.26728 -3.028085,-2.70816 -1.511748,-1.44087 -3.39789,-3.278456 -5.274506,-5.088053 -1.876628,-1.809582 -3.743538,-3.591437 -5.216894,-4.920742 -0.736666,-0.664646 -1.37519,-1.215871 -1.86703,-1.601264 -0.491827,-0.385395 -0.837175,-0.604959 -0.988148,-0.604959 -0.133663,0 -0.306739,0.101737 -0.446636,0.23503 -0.139898,0.133193 -0.246749,0.298186 -0.246749,0.4255 0,0.125547 0.298307,0.518072 0.82306,1.11152 0.524754,0.593446 1.276412,1.387609 2.183403,2.315643 1.813995,1.856068 4.249696,4.248262 6.737532,6.642425 2.487823,2.39416 5.027565,4.79046 7.049099,6.65574 2.021523,1.86528 3.524886,3.19942 3.939966,3.46883 0.50348,0.32679 0.84399,0.51305 1.31413,0.63564 0.47015,0.12261 1.07017,0.18149 2.09216,0.25241 1.94026,0.13466 3.14632,0.29324 3.72566,0.49035 0.31054,0.1057 0.6194,0.30044 0.98336,0.58123 0.36393,0.28076 0.78323,0.64706 1.31592,1.09528 0.52522,0.44197 2.63308,2.64372 5.58368,5.77291 2.95062,3.12919 6.7441,7.18613 10.64088,11.33856 -7.60451,7.48776 -16.08004,15.83251 -19.41953,19.13187 -0.1943,0.19195 -0.31036,0.53298 -0.37161,0.94593 -0.0613,0.41293 -0.0675,0.89827 -0.0414,1.37897 0.0521,0.96138 0.23279,1.90488 0.35962,2.21782 0.18314,0.45194 0.41382,0.88148 0.68438,1.28226 0.27054,0.40082 0.58128,0.77281 0.9251,1.10861 0.34382,0.33582 0.72025,0.6357 1.12322,0.89269 0.40298,0.257 0.8325,0.47129 1.28051,0.63565 0.20782,0.0761 0.88867,0.25514 1.77879,0.31378 0.44506,0.0294 0.94204,0.0285 1.4588,-0.0302 0.51675,-0.0587 1.05333,-0.1756 1.57587,-0.37803 0.26418,-0.10238 0.60535,-0.31797 1.01816,-0.63796 0.41283,-0.31998 0.89709,-0.744 1.44741,-1.2626 1.10061,-1.0372 2.46506,-2.45296 4.04862,-4.17049 3.16714,-3.43503 7.21065,-8.07841 11.77372,-13.3213 3.27358,3.45333 6.3114,6.62275 8.65197,8.98642 1.17031,1.18185 2.166,2.16209 2.93023,2.87603 0.76421,0.71397 1.2969,1.1613 1.53985,1.27709 0.35749,0.17038 0.84305,0.3411 1.07939,0.37919 l 6e-4,5.6e-4 c 0.60849,0.0976 0.87824,0.0983 1.47143,0.006 0.38314,-0.06 0.76669,-0.18885 1.1322,-0.37165 0.36554,-0.18279 0.71304,-0.41923 1.02597,-0.69412 0.31294,-0.27487 0.59102,-0.58823 0.81646,-0.92451 0.22546,-0.33629 0.39826,-0.69529 0.50127,-1.06231 0.11604,-0.41352 0.15346,-0.88119 0.11712,-1.33729 -0.0363,-0.45608 -0.14621,-0.90056 -0.32478,-1.26839 -0.12516,-0.25782 -0.60654,-0.80883 -1.37415,-1.59317 -0.76761,-0.78431 -1.82171,-1.80245 -3.09111,-2.99526 -2.53883,-2.38567 -5.94012,-5.47037 -9.64193,-8.78212 3.79636,-4.34554 7.78263,-8.88303 11.86676,-13.39888 2.04205,-2.25794 4.10814,-4.51002 6.18762,-6.73043 2.07949,-2.22041 4.17236,-4.40874 6.26626,-6.53822 0.47645,-0.2344 1.12254,-0.43296 1.90064,-0.62638 0.77811,-0.19342 1.68783,-0.38205 2.69191,-0.59627 1.00407,-0.21422 2.1024,-0.45405 3.2568,-0.75087 1.15439,-0.29678 2.36514,-0.65065 3.59417,-1.0918 1.10137,-0.39537 2.19442,-0.85617 3.28082,-1.38419 1.08641,-0.52801 2.16614,-1.12306 3.24,-1.78594 1.07385,-0.66288 2.14198,-1.393591 3.20577,-2.193503 1.06377,-0.799898 2.1232,-1.668876 3.17936,-2.60798 1.05614,-0.939119 2.10918,-1.948377 3.16014,-3.028863 1.05095,-1.080501 2.09993,-2.232627 3.14814,-3.456686 1.04821,-1.224043 2.09542,-2.519917 3.14333,-3.889697 1.04792,-1.369792 2.09629,-2.813142 3.14634,-4.330841 1.21773,-1.76004 2.40085,-3.638933 3.51135,-5.558707 1.11048,-1.919769 2.14829,-3.880464 3.0761,-5.803583 0.9278,-1.92312 1.74546,-3.80889 2.41514,-5.578968 0.66968,-1.770078 1.19171,-3.424782 1.52785,-4.885431 0.27481,-1.194347 0.45336,-2.281383 0.53908,-3.240746 0.0856,-0.959362 0.0787,-1.790739 -0.0186,-2.472529 -0.0487,-0.340896 -0.11988,-0.644218 -0.21311,-0.907735 -0.0933,-0.263515 -0.20868,-0.487248 -0.34579,-0.668062 -0.13706,-0.180815 -0.29587,-0.318817 -0.47607,-0.411606 -0.18021,-0.09279 -0.382,-0.140663 -0.60454,-0.140103 z"
       inkscape:label="knifeAndFork" /><path
       id="path57"
       style="fill:#09865c;stroke-width:0.264582;stroke-linecap:round;stroke-linejoin:round"
       d="m 71.438805,28.341837 c -0.324494,0.0392 -0.646597,0.139882 -0.948519,0.307981 l -0.06126,0.03414 c -0.301922,0.168094 -0.554148,0.386564 -0.751621,0.637963 -0.197474,0.251397 -0.340543,0.535692 -0.423825,0.835367 -0.08325,0.299676 -0.106671,0.61507 -0.06607,0.927995 0.0406,0.312925 0.145664,0.623532 0.319977,0.914681 l 7.086915,11.836997 c 0.174313,0.291147 0.400917,0.534369 0.661564,0.724798 0.260659,0.190427 0.55559,0.327817 0.866281,0.40813 0.310703,0.08031 0.637275,0.103449 0.961732,0.06425 0.324458,-0.03919 0.646609,-0.140471 0.948531,-0.308558 l 0.06186,-0.03416 c 0.301922,-0.168094 0.554197,-0.386561 0.751622,-0.637959 0.197425,-0.251399 0.340013,-0.535694 0.423236,-0.83537 0.08325,-0.299676 0.106791,-0.614488 0.06607,-0.927416 -0.04072,-0.312925 -0.145664,-0.623532 -0.319977,-0.914678 L 73.928995,29.538432 c -0.13072,-0.218361 -0.291171,-0.409599 -0.473052,-0.571965 -0.181894,-0.162367 -0.385626,-0.295304 -0.60334,-0.397712 -0.217702,-0.102403 -0.449171,-0.173976 -0.687379,-0.212461 -0.238208,-0.03847 -0.483022,-0.04388 -0.726395,-0.0144 z" /><path
       id="path56"
       style="fill:#09865c;stroke-width:0.264582;stroke-linecap:round;stroke-linejoin:round"
       d="m 193.22994,28.250367 c -0.24338,-0.02941 -0.4882,-0.02343 -0.7264,0.01506 -0.23822,0.0385 -0.47028,0.109469 -0.68798,0.211881 -0.21772,0.102414 -0.42084,0.235924 -0.60274,0.398291 -0.18188,0.162368 -0.34232,0.353604 -0.47306,0.571966 l -7.08692,11.836997 c -0.17431,0.291146 -0.27927,0.602332 -0.31997,0.915258 -0.0407,0.312926 -0.0166,0.62774 0.0667,0.927416 0.0832,0.299677 0.22581,0.58397 0.42323,0.835369 0.19743,0.251398 0.44969,0.469867 0.75163,0.637959 l 0.0613,0.03415 c 0.30191,0.168092 0.62462,0.269367 0.94912,0.308558 0.32452,0.03918 0.65098,0.01606 0.96173,-0.06425 0.31076,-0.08031 0.60559,-0.217706 0.86628,-0.408133 0.26072,-0.190428 0.48726,-0.433651 0.66158,-0.724797 l 7.08691,-11.836997 c 0.17432,-0.291147 0.27932,-0.602336 0.31998,-0.915261 0.0407,-0.312925 0.0166,-0.62774 -0.0667,-0.927415 -0.0832,-0.299675 -0.22576,-0.58397 -0.42324,-0.835369 -0.19747,-0.251399 -0.44971,-0.469865 -0.75162,-0.63796 l -0.0613,-0.03414 c -0.3019,-0.168093 -0.62403,-0.269352 -0.94852,-0.308561 z" /><path
       id="path55"
       style="fill:#09865c;stroke-width:0.264582;stroke-linecap:round;stroke-linejoin:round"
       d="m 132.30646,12.564189 c -0.34863,10e-7 -0.6802,0.06796 -0.98155,0.190462 -0.30135,0.122492 -0.57276,0.299924 -0.80024,0.519284 -0.22747,0.21936 -0.41146,0.48052 -0.5385,0.771109 -0.12698,0.29059 -0.1969,0.610332 -0.1969,0.94652 v 13.668095 c 0,0.336186 0.0698,0.655929 0.1969,0.946519 0.127,0.290591 0.31103,0.552327 0.5385,0.771688 0.22748,0.219362 0.49889,0.396787 0.80024,0.519284 0.30135,0.12249 0.63292,0.189883 0.98155,0.189883 h 0.0709 c 0.34863,0 0.6802,-0.06739 0.98153,-0.189883 0.30135,-0.122491 0.57217,-0.299922 0.79965,-0.519284 0.22747,-0.219361 0.41146,-0.481097 0.53851,-0.771688 0.12699,-0.29059 0.19691,-0.610333 0.1969,-0.946519 V 14.991564 c 0,-0.336187 -0.0698,-0.65593 -0.1969,-0.94652 -0.127,-0.290589 -0.31104,-0.551749 -0.53851,-0.771109 -0.22748,-0.21936 -0.4983,-0.396786 -0.79965,-0.519284 -0.30133,-0.122491 -0.6329,-0.190462 -0.98153,-0.190462 z" /></g><g
     inkscape:groupmode="layer"
     id="layer3"
     inkscape:label="support-structure"
     style="display:none"><rect
       style="opacity:0.997503;fill:#f2ff15;fill-opacity:0.538293;stroke-width:1.95626;stroke-linecap:round;stroke-linejoin:round"
       id="rect4"
       width="6.5936184"
       height="264.63409"
       x="128.98686"
       y="0.0027976253" /><rect
       style="opacity:0.997503;fill:#f2ff15;fill-opacity:0.538293;stroke-width:1.95626;stroke-linecap:round;stroke-linejoin:round"
       id="rect5"
       width="6.5936184"
       height="264.63409"
       x="158.7263"
       y="-38.743423"
       transform="rotate(15)" /><rect
       style="opacity:0.997503;fill:#f2ff15;fill-opacity:0.538293;stroke-width:1.95626;stroke-linecap:round;stroke-linejoin:round"
       id="rect6"
       width="6.5936184"
       height="264.63409"
       x="177.42413"
       y="-83.866531"
       transform="rotate(30)" /><rect
       style="opacity:0.997503;fill:#f2ff15;fill-opacity:0.538293;stroke-width:1.95626;stroke-linecap:round;stroke-linejoin:round"
       id="rect7"
       width="6.5936184"
       height="264.63409"
       x="183.80614"
       y="-132.29146"
       transform="rotate(45)" /><rect
       style="opacity:0.997503;fill:#f2ff15;fill-opacity:0.538293;stroke-width:1.95626;stroke-linecap:round;stroke-linejoin:round"
       id="rect8"
       width="6.5936184"
       height="264.63409"
       x="177.43738"
       y="-180.71814"
       transform="rotate(60)" /><rect
       style="opacity:0.997503;fill:#f2ff15;fill-opacity:0.538293;stroke-width:1.95626;stroke-linecap:round;stroke-linejoin:round"
       id="rect9"
       width="6.5936184"
       height="264.63409"
       x="158.75189"
       y="-225.84636"
       transform="rotate(75)" /><rect
       style="opacity:0.997503;fill:#f2ff15;fill-opacity:0.538293;stroke-width:1.95626;stroke-linecap:round;stroke-linejoin:round"
       id="rect10"
       width="6.5936184"
       height="264.63409"
       x="129.02306"
       y="-264.60071"
       transform="rotate(90)" /><rect
       style="opacity:0.997503;fill:#f2ff15;fill-opacity:0.538293;stroke-width:1.95626;stroke-linecap:round;stroke-linejoin:round"
       id="rect11"
       width="6.5936184"
       height="264.63409"
       x="90.276833"
       y="-294.34015"
       transform="rotate(105)" /><rect
       style="opacity:0.997503;fill:#f2ff15;fill-opacity:0.538293;stroke-width:1.95626;stroke-linecap:round;stroke-linejoin:round"
       id="rect12"
       width="6.5936184"
       height="264.63409"
       x="45.153725"
       y="-313.03799"
       transform="rotate(120)" /><rect
       style="opacity:0.997503;fill:#f2ff15;fill-opacity:0.538293;stroke-width:1.95626;stroke-linecap:round;stroke-linejoin:round"
       id="rect13"
       width="6.5936184"
       height="264.63409"
       x="-3.2712102"
       y="-319.42001"
       transform="rotate(135)" /><rect
       style="opacity:0.997503;fill:#f2ff15;fill-opacity:0.538293;stroke-width:1.95626;stroke-linecap:round;stroke-linejoin:round"
       id="rect14"
       width="6.5936184"
       height="264.63409"
       x="-51.697895"
       y="-313.05127"
       transform="rotate(150)" /><rect
       style="opacity:0.997503;fill:#f2ff15;fill-opacity:0.538293;stroke-width:1.95626;stroke-linecap:round;stroke-linejoin:round"
       id="rect15"
       width="6.5936184"
       height="264.63409"
       x="-96.826126"
       y="-294.36578"
       transform="rotate(165)" /></g></svg>
